<?xml version="1.0" encoding="UTF-8" standalone="no"?>
<!DOCTYPE svg PUBLIC "-//W3C//DTD SVG 1.1//EN"
 "http://www.w3.org/Graphics/SVG/1.1/DTD/svg11.dtd">
<!-- Generated by graphviz version 2.40.1 (20161225.0304)
 -->
<!-- Title: dependencies Pages: 1 -->
<svg width="504pt" height="284pt"
 viewBox="0.00 0.00 504.00 284.00" xmlns="http://www.w3.org/2000/svg" xmlns:xlink="http://www.w3.org/1999/xlink">
<g id="graph0" class="graph" transform="scale(1 1) rotate(0) translate(4 280)">
<title>dependencies</title>
<polygon fill="#ffffff" stroke="transparent" points="-4,4 -4,-280 500,-280 500,4 -4,4"/>
<text text-anchor="start" x="227.0091" y="-42.4" font-family="sans-serif" font-weight="bold" font-size="14.00" fill="#000000">Legend</text>
<polygon fill="#ffffb3" stroke="transparent" points="14,-10 14,-30 34,-30 34,-10 14,-10"/>
<text text-anchor="start" x="37.629" y="-15.4" font-family="sans-serif" font-size="14.00" fill="#000000"> &#160;Declarations</text>
<polygon fill="#8dd3c7" stroke="transparent" points="127,-10 127,-30 147,-30 147,-10 127,-10"/>
<text text-anchor="start" x="150.7251" y="-15.4" font-family="sans-serif" font-size="14.00" fill="#000000"> &#160;Module</text>
<polygon fill="#80b1d3" stroke="transparent" points="213,-10 213,-30 233,-30 233,-10 213,-10"/>
<text text-anchor="start" x="236.7812" y="-15.4" font-family="sans-serif" font-size="14.00" fill="#000000"> &#160;Bootstrap</text>
<polygon fill="#fdb462" stroke="transparent" points="310,-10 310,-30 330,-30 330,-10 310,-10"/>
<text text-anchor="start" x="333.6732" y="-15.4" font-family="sans-serif" font-size="14.00" fill="#000000"> &#160;Providers</text>
<polygon fill="#fb8072" stroke="transparent" points="406,-10 406,-30 426,-30 426,-10 406,-10"/>
<text text-anchor="start" x="429.7258" y="-15.4" font-family="sans-serif" font-size="14.00" fill="#000000"> &#160;Exports</text>
<g id="clust1" class="cluster">
<title>cluster_NgI18nModule</title>
<polygon fill="none" stroke="#000000" stroke-dasharray="1,5" points="113,-70 113,-268 383,-268 383,-70 113,-70"/>
</g>
<g id="clust2" class="cluster">
<title>cluster_NgI18nModule_declarations</title>
<polygon fill="none" stroke="#000000" points="125,-78 125,-130 372,-130 372,-78 125,-78"/>
</g>
<g id="clust6" class="cluster">
<title>cluster_NgI18nModule_exports</title>
<polygon fill="none" stroke="#000000" points="121,-208 121,-260 375,-260 375,-208 121,-208"/>
</g>
<!-- TranslateDirective -->
<g id="node1" class="node">
<title>TranslateDirective</title>
<polygon fill="#ffffb3" stroke="#000000" points="364.1657,-122 243.8343,-122 243.8343,-86 364.1657,-86 364.1657,-122"/>
<text text-anchor="middle" x="304" y="-99.8" font-family="Times,serif" font-size="14.00" fill="#000000">TranslateDirective</text>
</g>
<!-- NgI18nModule -->
<g id="node3" class="node">
<title>NgI18nModule</title>
<polygon fill="#8dd3c7" stroke="#000000" points="231.3175,-187 228.3175,-191 207.3175,-191 204.3175,-187 128.6825,-187 128.6825,-151 231.3175,-151 231.3175,-187"/>
<text text-anchor="middle" x="180" y="-164.8" font-family="Times,serif" font-size="14.00" fill="#000000">NgI18nModule</text>
</g>
<!-- TranslateDirective&#45;&gt;NgI18nModule -->
<g id="edge1" class="edge">
<title>TranslateDirective&#45;&gt;NgI18nModule</title>
<path fill="none" stroke="#000000" d="M324.0276,-122.0225C324.0276,-139.3734 324.0276,-163 324.0276,-163 324.0276,-163 241.1843,-163 241.1843,-163"/>
<polygon fill="#000000" stroke="#000000" points="241.1843,-159.5001 231.1843,-163 241.1842,-166.5001 241.1843,-159.5001"/>
</g>
<!-- TranslatePipe -->
<g id="node2" class="node">
<title>TranslatePipe</title>
<polygon fill="#ffffb3" stroke="#000000" points="225.4706,-122 132.5294,-122 132.5294,-86 225.4706,-86 225.4706,-122"/>
<text text-anchor="middle" x="179" y="-99.8" font-family="Times,serif" font-size="14.00" fill="#000000">TranslatePipe</text>
</g>
<!-- TranslatePipe&#45;&gt;NgI18nModule -->
<g id="edge2" class="edge">
<title>TranslatePipe&#45;&gt;NgI18nModule</title>
<path fill="none" stroke="#000000" d="M179,-122.1061C179,-122.1061 179,-140.991 179,-140.991"/>
<polygon fill="#000000" stroke="#000000" points="175.5001,-140.9909 179,-150.991 182.5001,-140.991 175.5001,-140.9909"/>
</g>
<!-- TranslateDirective  -->
<g id="node4" class="node">
<title>TranslateDirective </title>
<polygon fill="#fb8072" stroke="#000000" points="366.6661,-252 243.3339,-252 243.3339,-216 366.6661,-216 366.6661,-252"/>
<text text-anchor="middle" x="305" y="-229.8" font-family="Times,serif" font-size="14.00" fill="#000000">TranslateDirective </text>
</g>
<!-- NgI18nModule&#45;&gt;TranslateDirective  -->
<g id="edge3" class="edge">
<title>NgI18nModule&#45;&gt;TranslateDirective </title>
<path fill="none" stroke="#000000" stroke-dasharray="5,2" d="M231.377,-175C257.5716,-175 283.9724,-175 283.9724,-175 283.9724,-175 283.9724,-205.9775 283.9724,-205.9775"/>
<polygon fill="#000000" stroke="#000000" points="280.4725,-205.9774 283.9724,-215.9775 287.4725,-205.9775 280.4725,-205.9774"/>
</g>
<!-- TranslatePipe  -->
<g id="node5" class="node">
<title>TranslatePipe </title>
<polygon fill="#fb8072" stroke="#000000" points="225.4718,-252 128.5282,-252 128.5282,-216 225.4718,-216 225.4718,-252"/>
<text text-anchor="middle" x="177" y="-229.8" font-family="Times,serif" font-size="14.00" fill="#000000">TranslatePipe </text>
</g>
<!-- NgI18nModule&#45;&gt;TranslatePipe  -->
<g id="edge4" class="edge">
<title>NgI18nModule&#45;&gt;TranslatePipe </title>
<path fill="none" stroke="#000000" stroke-dasharray="5,2" d="M177.0384,-187.1061C177.0384,-187.1061 177.0384,-205.991 177.0384,-205.991"/>
<polygon fill="#000000" stroke="#000000" points="173.5385,-205.9909 177.0384,-215.991 180.5385,-205.991 173.5385,-205.9909"/>
</g>
</g>
</svg>
